<svg
  version="1.0"
  xmlns="http://www.w3.org/2000/svg"
  width="256pt"
  height="256pt"
  viewBox="0 0 256.000000 256.000000"
  preserveAspectRatio="xMidYMid meet"
  class="w-10 h-10 mr-2"
  fill="#ffffff"
>
  <g
    transform="translate(0.000000,256.000000) scale(0.100000,-0.100000)"
    fill="#ffffff"
    stroke="none"
  >
    <path
      d="M1598 1914 c-21 -22 -7 -54 33 -78 32 -19 46 -57 33 -86 -5 -10 -94
      -107 -199 -216 l-189 -197 -168 174 c-223 231 -227 236 -216 276 4 18 17 34
      28 38 11 3 29 19 40 36 19 26 20 31 6 44 -8 8 -21 15 -29 15 -16 0 -57 -41
      -57 -58 0 -17 -39 -34 -67 -29 -19 3 -34 -5 -68 -40 -25 -26 -41 -51 -38 -59
      3 -9 -43 -66 -117 -144 l-123 -131 23 -24 c28 -30 116 -75 146 -75 19 0 22 7
      29 64 10 95 79 226 118 226 7 0 55 -43 107 -96 52 -53 111 -106 130 -119 50
      -33 183 -162 178 -174 -1 -6 -102 -111 -223 -233 -242 -244 -321 -346 -292
      -375 14 -14 22 -10 94 38 43 30 107 85 143 124 35 38 123 129 195 200 72 72
      138 141 146 154 l15 24 24 -34 c13 -19 47 -54 75 -79 72 -65 139 -132 231
      -235 52 -58 113 -111 168 -149 79 -53 89 -57 103 -43 14 14 11 22 -33 85 -27
      39 -150 173 -272 298 l-224 228 91 85 c339 320 330 312 351 301 51 -27 100 -143 100 -237 0 -48 2 -53 23 -53 28 0 113 41 151 73 l30 24 -127 132 c-75 79 -124 138 -121 146 7 18 -75 107 -92 101 -19 -7 -74 14 -74 29 0 14 -45 65 -57 65 -5 0 -16 -7 -25 -16z"
    ></path>
  </g>
</svg>
